<svg width="152" height="41" viewBox="0 0 152 41" fill="none" xmlns="http://www.w3.org/2000/svg">
<path d="M0.5 20C0.5 9.23045 9.23045 0.5 20 0.5C30.7696 0.5 39.5 9.23045 39.5 20C39.5 30.7696 30.7696 39.5 20 39.5C9.23045 39.5 0.5 30.7696 0.5 20Z" stroke="#969186"/>
<path d="M16.6758 15.3349C16.6756 15.6885 16.5345 16.0275 16.2834 16.2775C16.0324 16.5274 15.692 16.6677 15.3372 16.6675C14.9824 16.6673 14.6422 16.5267 14.3914 16.2765C14.1406 16.0264 13.9998 15.6872 14 15.3336C14.0002 14.98 14.1413 14.6409 14.3923 14.391C14.6434 14.1411 14.9837 14.0008 15.3386 14.001C15.6934 14.0011 16.0336 14.1418 16.2844 14.3919C16.5352 14.6421 16.6759 14.9813 16.6758 15.3349ZM16.7159 17.6548H14.0401V26.001H16.7159V17.6548ZM20.9436 17.6548H18.2812V26.001H20.9168V21.6212C20.9168 19.1814 24.1077 18.9547 24.1077 21.6212V26.001H26.75V20.7146C26.75 16.6015 22.0273 16.7548 20.9168 18.7747L20.9436 17.6548Z" fill="#BDB8AD"/>
<path d="M112.5 20C112.5 9.23045 121.23 0.5 132 0.5C142.77 0.5 151.5 9.23045 151.5 20C151.5 30.7696 142.77 39.5 132 39.5C121.23 39.5 112.5 30.7696 112.5 20Z" stroke="#969186"/>
<path d="M132 17.751C131.403 17.751 130.831 17.988 130.409 18.41C129.987 18.8319 129.75 19.4042 129.75 20.001C129.75 20.5977 129.987 21.17 130.409 21.592C130.831 22.0139 131.403 22.251 132 22.251C132.597 22.251 133.169 22.0139 133.591 21.592C134.013 21.17 134.25 20.5977 134.25 20.001C134.25 19.4042 134.013 18.8319 133.591 18.41C133.169 17.988 132.597 17.751 132 17.751ZM132 16.251C132.995 16.251 133.948 16.6461 134.652 17.3493C135.355 18.0526 135.75 19.0064 135.75 20.001C135.75 20.9955 135.355 21.9494 134.652 22.6526C133.948 23.3559 132.995 23.751 132 23.751C131.005 23.751 130.052 23.3559 129.348 22.6526C128.645 21.9494 128.25 20.9955 128.25 20.001C128.25 19.0064 128.645 18.0526 129.348 17.3493C130.052 16.6461 131.005 16.251 132 16.251ZM136.875 16.0635C136.875 16.3121 136.776 16.5506 136.6 16.7264C136.425 16.9022 136.186 17.001 135.938 17.001C135.689 17.001 135.45 16.9022 135.275 16.7264C135.099 16.5506 135 16.3121 135 16.0635C135 15.8148 135.099 15.5764 135.275 15.4006C135.45 15.2247 135.689 15.126 135.938 15.126C136.186 15.126 136.425 15.2247 136.6 15.4006C136.776 15.5764 136.875 15.8148 136.875 16.0635ZM132 14.001C130.144 14.001 129.841 14.0062 128.978 14.0445C128.39 14.0722 127.996 14.151 127.63 14.2935C127.304 14.4195 127.069 14.5702 126.82 14.8207C126.585 15.0475 126.405 15.3244 126.292 15.6307C126.149 15.9982 126.07 16.392 126.043 16.9792C126.004 17.8072 126 18.0967 126 20.001C126 21.8565 126.005 22.1595 126.043 23.0227C126.071 23.61 126.15 24.0052 126.292 24.3705C126.419 24.6967 126.569 24.9315 126.818 25.1805C127.071 25.4325 127.306 25.5832 127.628 25.7077C127.999 25.851 128.393 25.9305 128.978 25.9575C129.806 25.9965 130.096 26.001 132 26.001C133.856 26.001 134.158 25.9957 135.022 25.9575C135.608 25.9297 136.003 25.851 136.369 25.7092C136.694 25.5825 136.931 25.4317 137.18 25.1827C137.432 24.93 137.583 24.6952 137.708 24.3727C137.85 24.003 137.929 23.6077 137.956 23.0227C137.995 22.1947 138 21.9052 138 20.001C138 18.1455 137.995 17.8425 137.956 16.9792C137.929 16.3927 137.85 15.9967 137.708 15.6307C137.595 15.3247 137.414 15.0479 137.18 14.8207C136.954 14.5859 136.677 14.4053 136.37 14.2927C136.003 14.1502 135.608 14.0715 135.022 14.0445C134.194 14.0055 133.904 14.001 132 14.001ZM132 12.501C134.038 12.501 134.292 12.5085 135.092 12.546C135.89 12.5835 136.434 12.7087 136.913 12.8947C137.408 13.0852 137.825 13.3432 138.242 13.7595C138.623 14.1344 138.918 14.5879 139.106 15.0885C139.292 15.5662 139.417 16.1107 139.455 16.9095C139.49 17.709 139.5 17.9632 139.5 20.001C139.5 22.0387 139.493 22.293 139.455 23.0925C139.417 23.8912 139.292 24.435 139.106 24.9135C138.918 25.4143 138.623 25.8679 138.242 26.2425C137.867 26.6237 137.413 26.9188 136.913 27.1072C136.435 27.2925 135.89 27.4185 135.092 27.456C134.292 27.4912 134.038 27.501 132 27.501C129.962 27.501 129.708 27.4935 128.908 27.456C128.11 27.4185 127.566 27.2925 127.088 27.1072C126.587 26.9193 126.133 26.6242 125.759 26.2425C125.377 25.8676 125.082 25.4141 124.894 24.9135C124.708 24.4357 124.583 23.8912 124.545 23.0925C124.51 22.293 124.5 22.0387 124.5 20.001C124.5 17.9632 124.508 17.709 124.545 16.9095C124.583 16.11 124.708 15.567 124.894 15.0885C125.081 14.5876 125.377 14.134 125.759 13.7595C126.133 13.3779 126.587 13.0828 127.088 12.8947C127.566 12.7087 128.109 12.5835 128.908 12.546C129.708 12.5107 129.962 12.501 132 12.501Z" fill="#BDB8AD"/>
<path d="M56.5 20C56.5 9.23045 65.2304 0.5 76 0.5C86.7696 0.5 95.5 9.23045 95.5 20C95.5 30.7696 86.7696 39.5 76 39.5C65.2304 39.5 56.5 30.7696 56.5 20Z" stroke="#969186"/>
<path d="M83.6215 15.2432C83.0489 15.4964 82.4417 15.6628 81.82 15.7367C82.4753 15.3447 82.9658 14.7279 83.2 14.0012C82.585 14.3672 81.9108 14.6237 81.208 14.7624C80.736 14.2574 80.1103 13.9224 79.4282 13.8096C78.7462 13.6968 78.046 13.8125 77.4365 14.1388C76.827 14.465 76.3423 14.9834 76.0578 15.6135C75.7734 16.2436 75.7051 16.95 75.8635 17.6229C74.6163 17.5604 73.3962 17.2363 72.2824 16.6717C71.1687 16.107 70.1861 15.3145 69.3985 14.3454C69.1197 14.8243 68.9732 15.3686 68.974 15.9227C68.974 17.0102 69.5275 17.9709 70.369 18.5334C69.871 18.5177 69.3839 18.3832 68.9485 18.1411V18.1801C68.9486 18.9044 69.1993 19.6063 69.6579 20.1669C70.1165 20.7275 70.7548 21.1122 71.4647 21.2559C71.0024 21.3811 70.5177 21.3996 70.0472 21.3099C70.2474 21.9333 70.6375 22.4785 71.1629 22.8692C71.6884 23.2599 72.3228 23.4765 72.9775 23.4886C72.3268 23.9996 71.5819 24.3774 70.7851 24.6003C69.9884 24.8231 69.1556 24.8868 68.3342 24.7876C69.768 25.7097 71.437 26.1992 73.1417 26.1976C78.9115 26.1976 82.0668 21.4179 82.0668 17.2727C82.0668 17.1377 82.063 17.0012 82.057 16.8677C82.6712 16.4238 83.2012 15.8739 83.6223 15.2439L83.6215 15.2432Z" fill="#BDB8AD"/>
</svg>
